<?xml version="1.0" standalone="no"?>
<!DOCTYPE svg PUBLIC "-//W3C//DTD SVG 20010904//EN"
 "http://www.w3.org/TR/2001/REC-SVG-20010904/DTD/svg10.dtd">
<svg version="1.0" xmlns="http://www.w3.org/2000/svg"
 width="3976.000000pt" height="3655.000000pt" viewBox="0 0 3976.000000 3655.000000"
 preserveAspectRatio="xMidYMid meet">

<g transform="translate(0.000000,3655.000000) scale(0.100000,-0.100000)"
fill="#000000" stroke="none">
<path d="M20359 29802 c-257 -205 -481 -418 -693 -657 -77 -87 -227 -269 -260
-317 -11 -15 -35 -5 -236 96 -255 127 -460 211 -735 301 -175 58 -522 152
-529 144 -2 -2 -30 -51 -61 -108 -180 -325 -370 -809 -470 -1195 -24 -92 -45
-170 -47 -171 -2 -2 -50 1 -108 5 -145 12 -586 12 -755 0 -229 -17 -524 -57
-676 -91 l-47 -10 -6 -62 c-14 -150 -18 -630 -7 -807 14 -208 43 -456 72 -605
10 -55 19 -103 19 -106 0 -4 -48 -23 -107 -44 -256 -90 -581 -242 -848 -395
-156 -90 -439 -272 -450 -290 -3 -5 15 -67 41 -137 143 -397 343 -797 571
-1141 l94 -143 -133 -132 c-304 -302 -611 -692 -823 -1046 l-38 -64 199 -196
c317 -313 629 -560 960 -761 38 -23 70 -43 71 -44 2 -1 -13 -40 -33 -87 -161
-382 -331 -1033 -361 -1385 -5 -64 -4 -72 13 -77 11 -3 64 -24 119 -47 376
-157 908 -297 1346 -355 l46 -6 6 -162 c11 -277 42 -526 107 -847 39 -193 108
-463 136 -529 l14 -34 143 7 c445 21 881 88 1252 192 72 20 139 38 150 41 17
3 30 -17 87 -134 168 -345 446 -770 703 -1073 109 -129 82 -125 263 -36 370
183 725 412 1040 670 68 56 127 101 132 101 5 0 64 -45 132 -101 315 -258 670
-487 1040 -670 181 -89 154 -93 263 36 172 203 411 543 550 785 53 92 208 388
217 416 3 9 41 2 136 -25 383 -108 782 -173 1216 -198 194 -11 210 -10 221 6
7 9 31 83 54 164 110 392 183 848 198 1224 l6 167 46 6 c438 58 970 198 1346
355 55 23 108 44 119 47 17 5 18 13 12 82 -33 362 -198 997 -360 1380 -20 47
-35 86 -33 87 1 1 33 21 71 44 331 201 643 448 960 761 l199 196 -38 64 c-217
360 -515 739 -823 1045 l-134 134 70 102 c240 355 475 824 613 1228 l29 85
-22 18 c-13 9 -80 55 -149 102 -327 218 -764 439 -1124 567 -60 22 -111 41
-112 42 -2 1 6 49 16 107 52 281 81 622 81 948 0 185 -16 519 -25 529 -1 1
-58 13 -126 27 -150 29 -405 61 -594 75 -169 12 -610 12 -755 0 -58 -4 -106
-7 -108 -5 -2 1 -23 79 -47 171 -77 298 -194 620 -335 926 -55 118 -180 360
-195 376 -6 7 -290 -66 -440 -113 -303 -94 -596 -213 -874 -355 -161 -83 -175
-88 -187 -72 -148 212 -537 624 -796 846 -161 137 -302 246 -320 246 -7 0 -79
-53 -159 -118z m299 -126 c159 -131 365 -325 512 -481 170 -181 382 -438 369
-449 -2 -1 -56 -37 -119 -78 -236 -155 -450 -334 -607 -508 -98 -107 -227
-274 -265 -342 -12 -21 -25 -38 -28 -38 -3 0 -16 17 -28 38 -38 68 -167 235
-265 342 -157 174 -371 353 -607 508 -63 41 -117 77 -119 78 -13 11 206 277
371 451 212 223 610 582 646 583 8 0 71 -47 140 -104z m-2542 -471 c172 -47
425 -133 609 -207 125 -50 539 -246 583 -276 10 -7 -7 -39 -66 -133 -144 -225
-237 -409 -324 -639 -43 -112 -111 -370 -123 -460 -10 -80 -15 -84 -55 -56
-288 194 -697 345 -1138 420 -79 13 -146 26 -149 29 -7 8 71 300 125 463 27
82 80 226 117 319 85 215 259 575 278 575 7 0 72 -16 143 -35z m5064 -167
c113 -234 195 -434 274 -668 58 -171 141 -478 133 -487 -3 -3 -70 -16 -149
-29 -441 -75 -850 -226 -1138 -420 -40 -28 -45 -24 -55 56 -12 91 -80 348
-123 460 -88 234 -178 410 -324 639 -59 94 -76 126 -66 133 50 34 464 229 602
283 252 100 664 232 729 234 14 1 41 -46 117 -201z m-3643 -454 c222 -142 474
-352 620 -514 121 -135 293 -374 293 -408 0 -5 -16 -45 -36 -88 -251 -549
-393 -1209 -370 -1719 l6 -140 -58 140 c-157 377 -368 708 -662 1040 -104 117
-300 311 -389 385 l-53 45 6 63 c23 224 109 501 237 767 105 218 279 501 303
492 8 -3 54 -31 103 -63z m2169 -68 c246 -384 406 -794 440 -1126 l6 -65 -53
-45 c-89 -74 -285 -268 -389 -385 -294 -333 -508 -668 -660 -1039 l-58 -138 0
233 c0 318 -34 590 -112 899 -56 223 -161 522 -254 724 -20 43 -36 83 -36 88
0 17 70 126 145 227 190 253 420 463 744 679 69 45 130 81 135 79 6 -2 48 -61
92 -131z m-4471 -735 c39 -4 69 -11 68 -16 -49 -290 -67 -513 -60 -740 6 -209
26 -360 68 -534 17 -67 29 -124 27 -126 -2 -1 -39 4 -83 11 -44 8 -179 17
-300 20 -235 7 -397 -6 -615 -47 -90 -17 -363 -83 -396 -96 -19 -7 -64 274
-90 567 -17 196 -24 701 -10 822 l7 66 67 12 c188 32 510 64 747 74 103 4 479
-5 570 -13z m7385 -2 c147 -11 381 -38 502 -59 l67 -12 7 -56 c12 -90 8 -622
-5 -782 -17 -203 -72 -604 -84 -617 -1 -1 -61 14 -132 33 -335 88 -580 119
-890 110 -121 -3 -256 -12 -300 -20 -44 -7 -81 -12 -83 -11 -2 2 10 59 27 126
53 219 65 335 65 624 0 257 -11 387 -48 588 -10 50 -10 70 -2 73 6 2 88 8 181
13 187 10 471 6 695 -10z m-7018 -43 c429 -73 770 -199 1068 -393 l100 -65 0
-182 c0 -598 142 -1213 388 -1691 l48 -94 -116 113 c-131 125 -269 239 -411
338 -326 227 -762 438 -1136 548 l-73 22 -21 71 c-32 108 -66 283 -80 413 -15
146 -6 559 14 704 31 211 38 240 57 240 10 0 83 -11 162 -24z m6027 -40 c34
-195 43 -291 48 -517 7 -329 -16 -544 -86 -776 l-21 -71 -73 -22 c-578 -172
-1140 -494 -1547 -887 l-116 -112 48 94 c247 479 388 1094 388 1694 l0 179
100 65 c295 192 633 318 1060 392 199 35 186 37 199 -39z m-3065 -259 c138
-326 236 -668 287 -1002 27 -178 38 -598 20 -768 -27 -245 -89 -480 -176 -665
-43 -90 -162 -282 -175 -282 -10 0 -125 179 -160 250 -280 559 -269 1430 28
2242 55 151 125 318 132 318 3 0 23 -42 44 -93z m-1464 -463 c559 -570 893
-1206 961 -1825 14 -126 6 -331 -17 -452 l-16 -88 -47 27 c-239 139 -472 381
-642 668 -284 480 -459 1154 -459 1768 l0 109 28 -19 c15 -11 101 -96 192
-188z m3050 -129 c-52 -699 -257 -1305 -596 -1762 -120 -162 -331 -351 -495
-447 l-47 -27 -16 88 c-99 519 100 1187 535 1794 134 188 244 315 438 509
l186 185 3 -95 c2 -52 -2 -162 -8 -245z m-4925 -580 c177 -27 157 -16 195
-108 104 -258 308 -610 498 -860 164 -217 397 -463 572 -601 41 -33 79 -63 84
-67 4 -4 -43 12 -105 36 -492 187 -1134 264 -1704 204 -195 -21 -180 -24 -248
56 -134 158 -299 440 -387 660 -62 154 -170 498 -170 541 0 13 171 62 345 98
106 22 293 48 425 60 88 8 397 -4 495 -19z m7260 0 c226 -29 595 -115 595
-139 0 -43 -108 -387 -170 -541 -88 -220 -253 -502 -387 -660 -68 -80 -53 -77
-248 -56 -186 19 -459 24 -645 12 -435 -29 -771 -104 -1155 -256 -25 -10 -19
-4 75 71 105 83 307 280 410 400 265 308 514 706 656 1051 20 48 37 89 38 90
4 5 200 35 279 43 124 12 404 4 552 -15z m-6839 -106 c842 -289 1551 -846
1839 -1444 56 -115 111 -277 122 -351 l6 -44 -43 0 c-23 0 -86 9 -141 20 -706
144 -1431 829 -1863 1763 -25 53 -44 97 -42 97 2 0 57 -18 122 -41z m5828 -56
c-432 -932 -1158 -1619 -1863 -1763 -55 -11 -118 -20 -141 -20 l-42 0 7 48
c12 82 73 256 129 366 273 537 836 1012 1571 1326 90 39 359 138 377 139 4 1
-13 -43 -38 -96z m-7624 -16 c0 -28 93 -335 136 -451 99 -262 273 -576 413
-744 29 -35 51 -65 49 -67 -2 -2 -58 -20 -123 -40 -351 -106 -682 -287 -1010
-553 -54 -45 -103 -78 -108 -75 -5 3 -47 63 -93 134 -207 318 -394 686 -535
1053 -36 92 -37 100 -21 112 51 38 313 196 440 266 228 126 451 229 712 329
141 54 140 54 140 36z m9452 -26 c363 -135 763 -335 1089 -546 57 -37 105 -68
106 -69 1 -1 -17 -54 -41 -117 -133 -348 -354 -779 -557 -1081 -32 -47 -62
-89 -67 -92 -4 -2 -53 31 -107 76 -328 266 -659 447 -1010 553 -65 20 -121 38
-123 40 -2 2 20 32 49 67 203 243 404 656 512 1053 23 85 42 155 43 155 1 0
48 -17 106 -39z m-4413 -1401 c11 -52 21 -95 21 -97 0 -2 -107 -35 -160 -49
-16 -4 -150 100 -150 117 0 5 20 36 44 69 59 81 135 216 177 316 l34 81 6
-171 c5 -118 13 -200 28 -266z m-629 265 c32 -66 84 -156 115 -200 32 -44 59
-85 62 -91 2 -6 -26 -37 -63 -67 -55 -46 -72 -55 -93 -50 -29 6 -145 43 -148
47 -2 1 6 43 18 92 14 63 22 141 26 264 4 130 8 169 16 150 5 -14 36 -79 67
-145z m-497 -275 c42 -33 110 -78 150 -101 39 -23 74 -43 76 -45 2 -2 -14 -39
-34 -84 -42 -89 -39 -86 -153 -99 -68 -7 -73 -6 -77 13 -32 161 -80 307 -145
437 l-38 75 71 -68 c40 -38 107 -96 150 -128z m1698 123 c-66 -132 -114 -277
-146 -439 -4 -19 -9 -20 -77 -13 -114 13 -111 10 -153 99 -20 45 -36 82 -34
84 2 2 37 22 76 45 98 56 213 145 298 229 39 38 71 70 73 71 1 0 -15 -34 -37
-76z m-4079 -3 c300 -17 575 -62 828 -135 424 -124 816 -352 1035 -605 62 -71
119 -149 113 -155 -11 -11 -197 -58 -283 -71 -155 -24 -478 -15 -655 19 -512
99 -1051 361 -1529 745 -52 42 -120 100 -150 128 l-56 52 65 7 c70 8 283 21
390 23 36 1 145 -3 242 -8z m6693 0 c105 -6 210 -14 235 -18 l44 -7 -89 -79
c-467 -409 -1035 -709 -1560 -825 -233 -51 -546 -67 -745 -36 -82 12 -267 59
-278 70 -6 6 53 86 116 158 89 101 191 188 326 278 392 264 922 424 1511 458
205 12 231 12 440 1z m-7444 -124 c434 -409 1016 -736 1584 -890 l90 -25 -80
0 c-88 -1 -290 -23 -430 -47 -414 -70 -941 -267 -1313 -491 l-107 -64 -100 50
c-325 161 -629 419 -916 774 l-79 98 62 53 c338 285 728 500 1073 591 50 13
101 24 114 25 16 0 49 -24 102 -74z m7990 50 c345 -90 737 -305 1077 -592 l62
-53 -80 -100 c-281 -349 -591 -611 -915 -773 l-101 -50 -79 49 c-269 166 -632
324 -972 423 -243 71 -588 130 -763 130 -41 0 -70 4 -64 8 5 5 68 25 139 46
227 65 475 170 702 296 261 146 589 383 779 564 47 44 88 75 100 76 12 0 64
-11 115 -24z m-4041 -202 c0 -2 -28 -4 -62 -4 l-62 0 28 29 29 30 33 -26 c19
-14 34 -27 34 -29z m-437 -51 c20 -6 22 -19 5 -26 -7 -3 -29 -12 -50 -21 l-36
-16 16 41 c11 30 19 38 31 33 9 -3 24 -9 34 -11z m820 -23 l15 -40 -36 16
c-21 9 -43 18 -49 21 -7 3 -13 8 -13 12 0 6 42 27 61 30 3 1 13 -17 22 -39z
m-146 -87 c56 -28 133 -61 171 -74 62 -20 72 -27 103 -73 19 -28 76 -93 127
-144 90 -91 93 -95 107 -161 14 -70 60 -204 86 -254 13 -25 13 -38 -3 -115
-10 -48 -19 -134 -21 -192 l-4 -105 -42 -55 c-23 -30 -66 -105 -97 -167 -34
-69 -63 -114 -74 -118 -34 -11 -164 -101 -220 -152 -50 -46 -62 -52 -115 -58
-87 -10 -186 -32 -255 -55 l-60 -20 -60 20 c-69 23 -168 45 -255 55 -53 6 -65
12 -115 58 -56 52 -186 141 -220 152 -12 4 -38 44 -69 108 -27 56 -70 131 -97
167 l-47 65 -4 105 c-2 58 -11 144 -21 192 -16 77 -16 90 -3 115 26 50 72 184
86 254 14 66 17 70 107 161 51 51 108 116 127 144 31 46 39 52 116 78 45 15
121 49 170 74 l89 47 195 -1 196 -1 102 -50z m1088 -45 c-84 -69 -233 -226
-284 -298 l-48 -68 -50 27 c-114 63 -113 61 -113 161 l0 89 33 5 c17 3 59 8
92 12 77 8 261 55 345 87 36 14 67 26 70 26 3 1 -17 -18 -45 -41z m-2679 -7
c100 -33 273 -71 326 -71 76 0 78 -3 78 -101 l0 -88 -42 -29 c-55 -37 -107
-64 -117 -60 -5 2 -36 40 -70 85 -34 44 -114 132 -179 194 -64 61 -110 109
-102 106 8 -3 56 -19 106 -36z m585 -88 c-5 -10 -23 -31 -40 -47 l-31 -30 0
41 c0 43 7 49 58 52 19 1 21 -2 13 -16z m1467 11 c18 -5 22 -13 22 -47 l0 -41
-31 30 c-43 41 -55 64 -32 64 10 0 28 -3 41 -6z m-6014 -319 c266 -335 589
-613 904 -778 l101 -53 -90 -75 c-269 -219 -541 -580 -735 -971 l-37 -76 -66
40 c-190 117 -430 291 -626 455 -126 105 -345 309 -408 379 l-36 41 52 84
c117 185 330 467 499 661 82 94 358 378 368 378 3 0 37 -38 74 -85z m10727
-52 c290 -296 533 -599 731 -912 l47 -74 -30 -36 c-49 -56 -282 -273 -413
-384 -191 -160 -435 -337 -627 -455 l-66 -40 -37 76 c-194 391 -466 752 -735
971 l-90 75 101 53 c315 165 638 443 904 778 37 47 71 85 74 85 3 0 67 -62
141 -137z m-6409 -23 c-9 -27 -19 -50 -22 -50 -3 0 -14 15 -22 34 l-16 33 31
16 c46 23 47 22 29 -33z m1902 34 l34 -17 -16 -33 c-9 -19 -19 -34 -22 -34 -3
0 -13 23 -22 50 -9 28 -14 50 -12 50 2 0 19 -7 38 -16z m-2025 -149 l34 -79
-22 -40 c-12 -23 -36 -58 -54 -80 l-33 -39 -40 25 c-101 64 -271 137 -409 174
l-70 19 100 7 c116 8 281 39 375 72 36 13 70 22 75 21 6 -1 25 -37 44 -80z
m2414 11 c43 -9 112 -19 155 -22 42 -3 84 -8 92 -10 8 -3 -37 -22 -100 -43
-120 -39 -228 -87 -317 -141 l-52 -31 -45 61 c-25 33 -48 69 -51 79 -5 18 19
90 50 151 l15 28 87 -28 c49 -16 123 -35 166 -44z m-3153 -114 c203 -37 374
-95 527 -181 l65 -36 -58 -54 c-191 -174 -521 -327 -855 -395 -378 -78 -837
-80 -1266 -5 -214 37 -613 141 -613 160 0 21 375 207 590 292 250 99 444 154
705 202 211 38 288 44 550 41 190 -3 264 -8 355 -24z m4261 18 c308 -31 642
-114 949 -235 200 -79 579 -268 587 -292 4 -10 -167 -64 -325 -103 -773 -193
-1575 -141 -2102 137 -114 60 -232 140 -304 205 l-58 53 73 41 c179 101 421
171 679 197 81 9 406 6 501 -3z m-3442 -233 l1 -39 -29 24 c-36 28 -36 29 -9
63 20 26 22 26 29 9 4 -10 8 -36 8 -57z m1993 -10 c-26 -28 -27 -28 -30 -6 -2
12 -1 38 3 58 l7 36 24 -30 23 -30 -27 -28z m-2002 -176 c5 -11 3 -48 -8 -102
-17 -84 -17 -84 -47 -82 -16 0 -79 4 -140 8 -97 7 -246 -2 -359 -21 -22 -4 -7
8 50 39 110 60 215 132 304 210 l75 65 58 -51 c32 -27 62 -57 67 -66z m2310
-53 c41 -29 113 -74 160 -101 47 -27 74 -46 60 -43 -81 17 -257 28 -355 21
-60 -4 -123 -8 -140 -8 -27 -2 -30 1 -40 48 -30 132 -32 123 42 192 l66 62 66
-60 c36 -33 100 -83 141 -111z m-2175 -131 c14 -24 25 -47 25 -50 0 -9 -69 16
-71 26 -2 12 10 67 15 67 3 0 17 -20 31 -43z m1758 -8 c6 -23 2 -26 -33 -36
-22 -5 -40 -8 -40 -5 0 3 12 25 26 50 28 47 35 45 47 -9z m-4890 -44 c607
-199 1267 -253 1827 -149 25 4 6 -9 -63 -44 -340 -176 -628 -393 -932 -703
-165 -168 -320 -352 -427 -505 l-52 -74 -87 0 c-329 0 -752 119 -1161 327
l-128 64 16 37 c8 20 38 80 66 132 212 395 437 679 709 894 46 36 85 66 88 66
2 0 67 -20 144 -45z m8207 -21 c100 -78 270 -248 356 -354 133 -164 335 -487
409 -654 l24 -55 -127 -64 c-409 -208 -832 -327 -1161 -327 l-87 0 -52 74
c-107 153 -262 337 -427 505 -304 310 -594 529 -932 703 -54 27 -89 48 -78 45
51 -14 234 -37 375 -48 446 -34 1044 48 1495 205 55 19 105 35 110 35 6 1 49
-29 95 -65z m-5286 -44 c15 -15 -75 -190 -157 -307 -82 -116 -305 -339 -439
-439 -401 -298 -906 -508 -1463 -609 -142 -25 -365 -55 -365 -48 0 7 83 117
163 216 536 664 1254 1118 1892 1196 100 12 354 6 369 -9z m2591 -5 c212 -37
392 -98 620 -210 470 -232 914 -612 1276 -1092 38 -50 69 -93 69 -95 0 -8
-219 21 -365 47 -587 107 -1145 349 -1541 668 -105 86 -284 273 -357 375 -70
97 -171 287 -163 307 3 8 24 16 53 18 87 8 316 -2 408 -18z m-2385 -40 c40
-14 78 -30 86 -36 12 -10 44 -128 44 -163 0 -9 -29 -24 -82 -42 -130 -43 -251
-101 -374 -180 l-29 -19 28 38 c83 111 144 208 193 312 31 63 57 115 58 115 1
0 35 -11 76 -25z m1833 -44 c32 -79 102 -199 173 -296 27 -37 55 -76 63 -87 9
-12 -15 -1 -58 27 -89 58 -228 123 -338 159 -54 18 -83 33 -83 42 0 35 32 154
44 164 14 10 142 58 161 59 6 0 23 -30 38 -68z m-1547 -105 l44 -34 -45 -4
c-35 -2 -45 0 -45 12 0 8 -3 25 -6 38 -8 30 -1 28 52 -12z m1200 12 c-3 -13
-6 -30 -6 -38 0 -12 -10 -14 -45 -12 l-45 4 42 33 c51 40 62 43 54 13z m-1013
-190 c18 -24 43 -57 56 -75 l21 -32 -96 -93 c-79 -76 -171 -188 -252 -304 -12
-17 -12 -17 -7 6 45 196 64 336 65 457 0 69 -1 68 80 76 94 10 97 9 133 -35z
m963 27 c20 -4 21 -13 27 -142 6 -119 36 -309 61 -388 7 -19 6 -19 -6 -1 -83
119 -173 228 -252 304 l-96 93 21 32 c13 18 38 51 57 75 l34 43 67 -6 c36 -3
75 -8 87 -10z m-733 -22 c8 -5 -46 -43 -61 -43 -4 0 -16 14 -26 31 l-19 32 49
-8 c27 -4 53 -9 57 -12z m408 -1 c-21 -39 -37 -44 -72 -23 -23 14 -28 22 -18
25 23 8 53 14 77 15 19 1 21 -2 13 -17z m-961 -49 c-1 -154 -36 -349 -91 -515
-154 -463 -524 -955 -1009 -1342 -188 -150 -560 -395 -560 -369 0 5 16 74 35
154 223 913 717 1659 1319 1994 82 46 252 114 284 115 19 0 22 -5 22 -37z
m1565 -4 c194 -75 390 -207 577 -388 417 -401 735 -993 903 -1680 19 -80 35
-149 35 -154 0 -11 -87 38 -230 131 -757 490 -1295 1193 -1404 1832 -8 47 -18
133 -22 193 -7 106 -7 107 15 107 13 0 69 -18 126 -41z m-768 -45 c34 -19 65
-39 68 -44 3 -5 -5 -31 -19 -58 -38 -74 -94 -251 -113 -357 -10 -52 -20 -95
-23 -95 -3 0 -13 43 -23 95 -19 106 -75 283 -113 357 -14 27 -22 53 -19 58 12
19 150 90 165 84 8 -3 43 -21 77 -40z m-266 -293 c196 -578 46 -1407 -391
-2167 -99 -173 -262 -408 -270 -393 -12 22 -58 290 -77 449 -24 202 -24 680 0
865 49 368 131 647 268 915 88 171 179 299 298 420 l93 95 26 -50 c14 -28 38
-88 53 -134z m571 48 c278 -310 455 -749 525 -1300 24 -190 24 -659 0 -859
-19 -159 -65 -427 -77 -449 -5 -9 -39 35 -107 135 -379 562 -592 1138 -634
1708 -22 305 26 619 128 843 l25 53 39 -31 c22 -17 67 -62 101 -100z m1482
-308 c380 -223 863 -390 1352 -466 87 -13 202 -28 254 -32 l95 -8 67 -134
c106 -212 193 -498 233 -767 21 -143 37 -339 33 -419 l-3 -70 -115 -8 c-151
-11 -454 -2 -604 18 -235 31 -475 93 -632 165 l-61 27 -7 53 c-13 95 -96 408
-152 573 -156 453 -356 817 -640 1166 l-28 35 59 -41 c33 -22 100 -63 149 -92z
m-3578 87 c-280 -348 -476 -707 -630 -1155 -56 -165 -139 -478 -152 -573 l-7
-53 -61 -27 c-163 -74 -439 -144 -681 -172 -117 -14 -600 -17 -647 -5 -28 7
-28 8 -28 90 0 372 110 851 268 1168 l67 134 95 8 c52 4 166 18 252 32 549 85
1048 266 1453 525 50 32 92 59 94 59 2 1 -8 -14 -23 -31z m-3208 -267 c226
-113 484 -209 705 -261 125 -30 339 -60 425 -60 39 0 72 -4 72 -9 0 -4 -22
-55 -49 -112 -157 -334 -245 -706 -267 -1128 l-7 -132 -51 6 c-390 49 -847
166 -1259 323 l-99 37 7 60 c33 300 173 833 311 1188 55 142 62 157 70 157 2
0 66 -31 142 -69z m10015 -32 c137 -334 298 -936 332 -1244 l7 -60 -138 -52
c-376 -139 -746 -237 -1110 -293 -71 -11 -136 -20 -145 -20 -14 0 -17 20 -23
131 -22 422 -111 795 -267 1128 -27 57 -49 108 -49 112 0 5 31 9 70 9 82 0
258 23 390 52 223 48 511 152 745 271 72 36 134 65 140 63 5 -1 27 -45 48 -97z
m-6033 -280 c-29 -94 -77 -335 -95 -479 -23 -172 -31 -559 -16 -745 14 -183
44 -392 77 -545 14 -63 27 -127 31 -142 5 -24 -5 -38 -83 -116 -194 -193 -401
-335 -699 -482 -177 -87 -421 -189 -429 -179 -2 2 -22 52 -45 112 -147 379
-213 703 -214 1052 0 110 3 210 7 222 4 13 44 42 109 79 515 292 992 724 1290
1171 45 67 83 121 84 119 1 -1 -6 -31 -17 -67z m2086 -274 c119 -150 410 -438
574 -569 152 -121 404 -293 557 -380 65 -37 105 -66 109 -79 4 -12 7 -112 7
-222 -1 -349 -67 -673 -214 -1052 -23 -60 -43 -110 -45 -112 -8 -10 -252 92
-429 179 -298 147 -505 289 -699 482 -78 78 -88 92 -83 116 4 15 17 79 31 142
33 153 63 362 77 545 15 186 7 574 -16 745 -23 182 -76 433 -113 540 -3 8 31
-39 76 -105 44 -66 120 -169 168 -230z m-1133 23 c79 -507 343 -1114 693
-1594 l85 -117 -28 -81 c-63 -182 -197 -427 -336 -616 -121 -164 -409 -480
-437 -480 -13 0 -190 179 -284 288 -100 116 -204 256 -276 372 -69 110 -183
343 -215 441 l-26 77 85 116 c350 480 614 1087 693 1594 10 61 20 112 23 112
3 0 13 -51 23 -112z m-2537 -1296 c0 -229 15 -358 66 -582 33 -146 96 -352
153 -495 19 -49 35 -93 35 -97 0 -18 -355 -109 -595 -152 -256 -47 -606 -86
-766 -86 l-77 0 -21 80 c-106 393 -176 830 -188 1184 l-6 178 43 -7 c68 -12
484 -9 600 4 245 27 477 79 645 144 50 19 95 35 100 36 6 1 10 -74 11 -207z
m5132 172 c180 -67 408 -118 652 -145 116 -13 532 -16 600 -4 l43 7 -6 -173
c-13 -360 -81 -792 -188 -1191 l-21 -78 -77 0 c-160 0 -510 39 -766 86 -240
43 -595 134 -595 152 0 4 16 48 35 97 57 143 120 349 153 495 51 224 66 353
66 582 1 115 3 208 5 208 2 0 46 -16 99 -36z m-3463 -794 c123 -314 346 -640
653 -951 l104 -107 -93 -78 c-282 -234 -632 -466 -980 -648 l-146 -76 -96 119
c-238 298 -451 630 -616 958 -73 148 -79 163 -59 163 27 0 305 118 449 191
253 127 490 294 669 470 36 35 68 62 71 59 4 -3 23 -48 44 -100z m1958 -96
c201 -169 513 -348 813 -468 77 -31 146 -56 152 -56 20 0 14 -15 -59 -163
-165 -328 -385 -670 -622 -965 l-90 -112 -143 74 c-343 179 -702 416 -983 650
l-93 78 99 102 c305 309 525 627 648 931 20 50 40 99 44 111 9 19 14 16 78
-44 37 -36 108 -98 156 -138z"/>
<path d="M7062 17149 c-282 -24 -601 -137 -887 -314 -432 -267 -929 -744
-1339 -1285 -447 -589 -806 -1240 -1060 -1923 -293 -787 -323 -1547 -81 -2052
176 -366 438 -559 865 -637 168 -31 535 -31 735 0 340 53 657 158 1003 331
551 276 1020 613 1481 1066 136 133 192 183 188 165 -20 -88 -29 -175 -25
-256 4 -77 10 -104 34 -151 39 -78 78 -103 159 -103 186 0 412 227 774 776
163 247 153 234 146 210 -3 -10 -17 -76 -31 -145 -49 -237 -33 -481 41 -607
47 -80 151 -105 269 -64 179 61 355 209 901 756 518 518 651 632 754 642 42 4
50 2 55 -15 14 -44 -71 -344 -255 -896 -76 -230 -139 -431 -139 -447 0 -46 43
-73 108 -68 29 3 59 11 67 19 8 8 61 109 118 224 57 116 136 269 176 340 98
174 285 455 356 533 120 132 247 162 271 65 4 -14 4 -73 1 -132 -7 -120 -39
-262 -116 -506 -75 -243 -108 -379 -103 -437 3 -26 58 -50 113 -50 64 0 112
30 136 84 138 317 397 716 519 800 58 40 88 44 114 18 19 -19 21 -29 16 -74
-9 -71 -17 -93 -112 -331 -46 -115 -91 -239 -100 -274 -22 -88 -16 -182 14
-214 44 -47 145 -59 256 -31 219 55 719 392 1183 797 l112 97 -24 -71 c-59
-172 -103 -460 -89 -579 16 -144 77 -287 144 -340 120 -95 312 -83 532 32 217
113 590 430 898 761 79 86 146 155 147 153 2 -2 -10 -82 -26 -177 -39 -227
-50 -328 -57 -534 -14 -381 55 -589 221 -671 44 -21 69 -26 127 -26 176 0 355
84 625 293 114 88 511 477 578 566 21 29 40 52 41 50 1 -1 -4 -26 -11 -55 -57
-218 4 -426 134 -459 54 -14 131 1 206 40 149 78 397 379 677 819 50 79 87
130 83 113 -52 -212 -56 -239 -62 -367 -7 -159 4 -232 48 -325 60 -127 161
-180 320 -170 202 13 440 133 814 411 288 215 775 655 775 701 0 26 -29 55
-54 55 -10 0 -66 -46 -124 -103 -398 -382 -901 -772 -1146 -887 -208 -98 -323
-95 -393 9 -38 57 -48 107 -47 246 1 197 49 387 175 704 58 144 57 162 -2 215
-69 63 -125 47 -170 -48 -11 -24 -35 -61 -53 -82 l-32 -37 -57 60 c-70 73
-157 122 -231 130 -181 19 -438 -183 -626 -492 -114 -187 -541 -681 -765 -885
-298 -271 -467 -371 -632 -374 -64 -1 -75 2 -114 29 -88 62 -129 187 -136 415
-11 342 79 816 278 1458 137 439 403 1140 624 1642 75 170 249 530 300 619 36
63 34 112 -6 145 -53 45 -121 33 -182 -29 -58 -59 -234 -418 -397 -805 -214
-511 -463 -1250 -599 -1779 -35 -134 -57 -202 -74 -225 -14 -17 -164 -172
-333 -343 -506 -509 -771 -707 -997 -743 -101 -16 -175 7 -213 65 -23 35 -30
179 -14 301 24 192 111 483 236 792 30 74 54 146 54 162 0 41 -55 82 -119 88
-71 6 -92 -17 -146 -162 -51 -137 -67 -157 -295 -358 -442 -391 -936 -723
-1095 -736 -33 -3 -60 0 -69 7 -37 31 -24 128 39 281 78 192 97 263 102 390 6
140 -7 171 -83 210 -97 50 -194 27 -297 -68 -50 -48 -202 -269 -272 -397 -21
-38 -49 -86 -62 -105 -21 -30 -23 -32 -19 -10 4 14 13 54 20 90 51 227 67 572
33 685 -64 207 -240 207 -441 1 -115 -119 -276 -366 -423 -651 -45 -88 -83
-158 -83 -155 0 4 65 197 145 430 188 549 193 569 161 643 -22 52 -50 70 -116
75 -97 7 -237 -45 -365 -136 -132 -94 -396 -348 -785 -757 -406 -425 -571
-565 -668 -565 -97 0 -130 92 -119 340 9 199 44 336 163 638 l65 164 -18 36
c-22 46 -75 82 -119 82 -59 0 -132 -85 -168 -194 -5 -15 -12 -11 -45 30 -72
91 -169 144 -260 144 -25 0 -84 -14 -131 -31 -47 -16 -101 -34 -121 -40 -26
-8 -62 -39 -131 -112 -125 -134 -190 -220 -276 -364 -55 -92 -100 -149 -204
-261 -462 -495 -1007 -905 -1613 -1212 -482 -244 -902 -362 -1340 -377 -463
-16 -875 109 -1077 325 -212 226 -304 586 -269 1052 33 434 139 796 403 1380
467 1032 1256 2088 2015 2697 294 236 576 386 837 445 118 27 313 29 403 5
128 -34 212 -89 279 -183 168 -235 177 -644 25 -1104 -161 -485 -413 -848
-759 -1094 -67 -48 -150 -113 -184 -144 -153 -141 -157 -241 -13 -273 50 -11
69 -11 138 4 117 24 177 57 245 134 31 36 88 100 125 141 292 321 514 720 636
1148 67 232 91 398 91 626 0 252 -28 402 -107 568 -123 257 -361 369 -721 339z
m1822 -3963 c20 -15 49 -45 63 -67 32 -49 35 -43 -94 -238 -247 -377 -543
-730 -663 -791 -56 -29 -105 -27 -126 5 -13 21 -16 41 -11 103 18 261 365 841
582 974 62 38 95 48 157 45 43 -2 64 -9 92 -31z m8894 20 c30 -16 80 -67 105
-108 l17 -27 -143 -213 c-358 -537 -574 -774 -707 -780 -81 -3 -100 62 -61
214 59 230 321 668 488 818 109 96 227 134 301 96z"/>
<path d="M25467 17130 c-681 -57 -1501 -386 -2127 -854 -339 -253 -542 -468
-645 -680 -104 -215 -139 -448 -100 -672 43 -243 156 -438 386 -665 192 -190
522 -420 959 -669 181 -103 424 -263 555 -365 111 -86 263 -217 264 -226 1 -3
-32 -16 -71 -28 -988 -302 -1842 -722 -2213 -1087 -439 -433 -398 -847 100
-1013 243 -81 601 -83 955 -5 242 54 644 204 845 315 420 233 705 601 797
1032 32 153 30 356 -6 492 -14 55 -44 135 -66 179 -22 44 -38 81 -37 82 13 13
686 179 952 234 137 28 441 80 473 80 8 0 -18 -34 -56 -75 -252 -269 -452
-746 -415 -986 13 -83 56 -175 96 -204 23 -16 44 -20 105 -20 68 0 86 4 147
34 138 68 327 290 636 747 78 115 138 200 135 189 -50 -177 -60 -243 -60 -400
-1 -148 1 -166 27 -243 31 -90 72 -147 124 -168 78 -33 193 -7 320 72 161 100
285 214 818 750 446 448 540 531 627 555 29 7 43 7 54 -2 18 -15 18 -81 -1
-144 -9 -27 -61 -225 -116 -440 -55 -214 -123 -470 -150 -568 -29 -101 -47
-186 -44 -197 8 -25 55 -50 94 -50 57 0 77 18 136 129 217 401 511 831 671
980 110 104 221 142 258 89 46 -65 -2 -274 -138 -604 -87 -213 -123 -429 -85
-509 33 -71 176 -92 309 -46 242 83 683 376 1084 720 80 69 98 80 94 60 -97
-448 -122 -626 -121 -854 1 -184 15 -281 53 -356 29 -56 107 -131 167 -160 43
-21 61 -24 168 -23 111 0 128 3 226 37 135 45 254 105 394 197 433 286 987
797 1315 1215 72 92 103 116 37 29 -214 -284 -310 -569 -247 -736 25 -67 86
-128 165 -165 53 -25 71 -28 155 -27 111 0 168 20 266 89 76 55 183 169 230
246 73 121 124 312 124 465 l0 73 33 5 c17 3 82 8 142 11 242 12 577 60 780
111 20 5 20 0 20 -198 0 -227 10 -294 71 -478 35 -104 173 -393 299 -625 35
-66 65 -126 65 -134 0 -8 -62 -78 -138 -155 -346 -355 -632 -719 -738 -941
-40 -86 -74 -191 -74 -232 0 -42 32 -125 61 -158 49 -56 123 -79 254 -79 130
0 220 22 362 89 117 55 170 92 261 179 238 229 362 540 349 876 -5 151 -27
252 -83 384 l-34 79 118 112 c641 610 1366 1208 1620 1339 46 23 60 57 38 91
-9 14 -26 25 -37 25 -28 0 -155 -77 -315 -191 -389 -277 -941 -743 -1351
-1142 l-132 -129 -77 159 c-229 474 -278 639 -279 943 0 173 0 176 33 270 63
180 177 320 312 384 60 29 73 31 170 31 97 0 110 -2 170 -31 36 -17 97 -55
135 -84 39 -29 85 -59 104 -67 108 -46 188 93 116 203 -39 60 -156 133 -272
171 -172 56 -395 23 -571 -85 -153 -93 -281 -231 -348 -377 -38 -83 -40 -85
-94 -106 -135 -52 -435 -99 -750 -119 -240 -14 -214 -20 -234 51 -9 33 -27 82
-40 108 -26 50 -88 117 -119 127 -13 4 -16 11 -12 22 16 38 15 48 -7 68 -47
43 -153 58 -195 29 -11 -8 -32 -34 -46 -58 -21 -36 -34 -46 -79 -60 -29 -9
-78 -31 -108 -49 -46 -27 -60 -43 -85 -94 -175 -355 -1180 -1284 -1620 -1498
-132 -65 -207 -87 -312 -93 -86 -5 -96 -4 -147 21 -66 32 -90 75 -113 198 -57
316 134 1023 642 2378 136 362 320 875 371 1032 24 75 31 88 53 93 56 11 407
55 597 74 453 46 879 47 806 2 -21 -13 -4 -38 53 -76 55 -39 170 -85 209 -85
13 0 29 7 36 15 10 12 6 25 -24 70 -115 173 -355 227 -919 206 -246 -10 -544
-30 -684 -47 -29 -3 -53 -3 -53 0 0 4 18 65 39 135 132 429 186 810 137 961
-26 80 -54 97 -94 60 -18 -17 -22 -32 -22 -78 0 -145 -62 -401 -185 -767 -46
-137 -92 -271 -102 -297 l-17 -47 -61 -6 c-33 -3 -170 -19 -305 -35 -374 -45
-595 -60 -888 -60 -288 0 -367 10 -452 53 -25 13 -56 39 -68 58 -21 29 -23 42
-18 90 6 47 3 60 -14 82 -32 40 -53 34 -80 -22 -18 -39 -21 -59 -16 -91 24
-153 169 -242 467 -286 96 -14 165 -16 439 -11 313 6 504 19 788 52 74 9 136
14 139 11 6 -6 -38 -130 -202 -571 -201 -538 -426 -1196 -530 -1547 -25 -84
-28 -89 -103 -159 -260 -243 -711 -585 -947 -717 -131 -73 -209 -98 -271 -86
l-49 9 1 80 c2 84 6 99 127 435 86 240 115 465 74 572 -47 122 -188 155 -340
80 -153 -76 -373 -338 -617 -737 -51 -82 -89 -140 -85 -127 4 13 61 215 127
450 129 457 140 514 105 579 -60 113 -279 72 -502 -94 -117 -87 -356 -315
-545 -519 -91 -98 -220 -237 -286 -308 -198 -214 -372 -377 -441 -413 -157
-84 -219 -9 -217 262 1 181 16 239 189 737 41 118 41 139 -2 183 -32 32 -62
45 -103 45 -34 0 -59 -28 -119 -133 l-44 -77 -67 70 c-76 79 -150 120 -218
120 -44 0 -175 -39 -215 -64 -12 -8 -66 -16 -122 -20 -234 -15 -597 -86 -1168
-227 l-408 -102 -137 137 c-262 259 -496 431 -881 643 -342 189 -604 365 -848
570 -166 139 -256 252 -332 414 -78 166 -110 371 -77 496 51 196 175 390 372
585 377 372 975 717 1613 928 317 105 554 143 906 144 248 1 320 -8 495 -60
117 -35 192 -78 250 -141 168 -184 120 -534 -122 -889 -165 -245 -534 -617
-829 -837 -83 -62 -107 -73 -287 -122 -68 -19 -136 -43 -151 -54 -36 -26 -63
-82 -69 -143 -4 -42 -1 -50 27 -79 28 -27 37 -31 68 -26 71 12 414 228 616
389 296 236 570 543 748 839 163 274 237 554 195 749 -42 199 -191 363 -409
450 -158 63 -421 90 -670 70z m8450 -3895 c34 -48 61 -120 50 -131 -7 -7 -255
11 -263 19 -3 3 23 48 58 100 l63 96 30 -19 c17 -10 45 -39 62 -65z m-6974
-38 c21 -13 53 -45 72 -71 40 -56 46 -36 -68 -216 -165 -261 -381 -553 -502
-679 -134 -141 -239 -192 -301 -147 -32 24 -25 147 14 264 66 193 219 463 369
650 154 193 306 266 416 199z m6787 -192 c36 -8 90 -15 120 -15 30 0 72 -3 93
-6 37 -7 37 -7 37 -53 0 -133 -52 -312 -127 -440 -95 -162 -266 -291 -385
-291 -125 0 -158 113 -93 319 48 151 239 501 273 501 10 -1 46 -7 82 -15z
m-8795 -210 c140 -224 164 -529 60 -768 -158 -365 -445 -639 -900 -858 -405
-195 -968 -300 -1319 -244 -336 52 -496 179 -496 393 0 92 30 175 100 281 77
115 161 204 283 303 427 344 1211 713 2052 966 l130 40 23 -22 c13 -11 43 -53
67 -91z m10653 -1333 c92 -241 102 -454 31 -666 -94 -280 -267 -453 -554 -552
-66 -23 -98 -28 -185 -28 -93 -1 -110 2 -147 23 -57 33 -70 66 -56 145 34 200
262 516 731 1014 74 78 138 142 143 142 4 0 21 -35 37 -78z"/>
<path d="M14272 14175 c-60 -51 -132 -199 -132 -273 0 -82 72 -82 154 1 29 29
60 70 70 92 39 83 30 171 -20 194 -34 15 -38 14 -72 -14z"/>
<path d="M10665 9884 c-243 -38 -440 -204 -521 -439 -24 -70 -28 -95 -28 -195
0 -98 5 -127 28 -197 47 -145 164 -291 286 -357 37 -20 337 -139 688 -271 l62
-24 0 57 0 58 -145 53 c-80 30 -142 57 -138 61 4 4 36 17 70 29 100 35 153 70
239 155 133 133 191 285 181 472 -18 324 -280 583 -604 598 -48 2 -101 2 -118
0z m203 -119 c191 -45 350 -205 392 -397 18 -80 8 -238 -18 -307 -81 -210
-272 -341 -492 -341 -141 1 -251 44 -354 141 -107 99 -166 239 -166 389 0 340
312 592 638 515z"/>
<path d="M29368 9880 c-202 -34 -380 -164 -467 -341 -53 -108 -71 -183 -71
-289 0 -179 58 -318 185 -446 124 -125 248 -182 415 -191 260 -14 490 120 608
353 46 92 65 174 64 289 -1 176 -57 309 -187 441 -64 65 -97 89 -165 122 -128
62 -257 83 -382 62z m197 -111 c229 -42 403 -241 422 -480 20 -256 -145 -489
-392 -555 -168 -45 -369 11 -496 138 -175 173 -205 459 -70 664 68 105 154
173 266 212 95 34 171 39 270 21z"/>
<path d="M32862 9875 c-73 -20 -108 -40 -156 -88 -56 -56 -88 -127 -94 -208
-7 -98 17 -168 80 -235 62 -66 121 -95 261 -130 179 -44 239 -102 245 -235 3
-66 1 -82 -22 -127 -84 -166 -323 -180 -426 -24 -34 52 -34 52 -87 52 -62 0
-66 -10 -32 -75 116 -220 418 -260 589 -79 75 80 94 129 94 244 0 111 -18 162
-82 232 -53 57 -108 83 -246 117 -139 35 -196 65 -232 127 -39 66 -38 156 3
222 66 107 196 141 307 79 22 -12 50 -37 61 -54 19 -30 24 -32 78 -33 67 0 70
6 29 71 -77 121 -234 182 -370 144z"/>
<path d="M8176 9862 c-4 -8 -317 -852 -422 -1140 l-33 -93 62 3 62 3 66 185
67 185 243 3 244 2 66 -187 66 -188 63 -3 c36 -2 61 1 59 6 -2 6 -105 285
-228 621 l-225 611 -42 0 c-24 0 -45 -4 -48 -8z m147 -464 c54 -150 97 -276
97 -280 0 -10 -400 -11 -400 -1 0 13 195 553 200 553 3 0 49 -123 103 -272z"/>
<path d="M9040 9251 l0 -621 60 0 60 0 0 571 0 571 148 -4 c164 -5 217 -20
280 -81 58 -55 76 -102 77 -192 0 -120 -45 -194 -151 -246 -43 -21 -66 -24
-182 -27 -73 -2 -132 -8 -130 -12 2 -5 107 -137 233 -294 l230 -285 73 -1 c45
0 71 4 67 10 -3 5 -92 114 -196 242 l-191 233 49 13 c177 49 271 134 309 281
32 127 -4 252 -100 347 -100 99 -132 107 -408 112 l-228 4 0 -621z"/>
<path d="M11770 9442 c0 -464 1 -476 57 -586 31 -60 121 -157 177 -190 99 -58
236 -72 342 -36 145 50 248 164 302 335 13 41 16 126 19 478 l4 427 -60 0 -60
0 -3 -442 -3 -443 -32 -67 c-35 -75 -92 -137 -155 -169 -60 -31 -177 -38 -249
-14 -74 25 -167 117 -200 200 -24 60 -24 62 -27 498 l-3 437 -54 0 -55 0 0
-428z"/>
<path d="M13110 9250 l0 -620 55 0 55 0 0 620 0 620 -55 0 -55 0 0 -620z"/>
<path d="M13572 9818 l3 -53 208 -3 207 -2 0 -565 0 -565 55 0 55 0 0 565 0
565 210 0 210 0 0 55 0 55 -476 0 -475 0 3 -52z"/>
<path d="M14860 9250 l0 -620 321 0 320 0 -3 48 -3 47 -262 3 -263 2 0 240 0
240 238 2 237 3 3 48 3 47 -240 0 -241 0 0 230 0 230 255 0 255 0 0 50 0 50
-310 0 -310 0 0 -620z"/>
<path d="M15810 9815 l0 -55 210 0 210 0 0 -565 0 -565 55 0 55 0 0 565 0 565
208 2 207 3 3 53 3 52 -475 0 -476 0 0 -55z"/>
<path d="M17100 9452 c0 -342 3 -429 15 -477 38 -147 126 -260 253 -322 73
-37 80 -38 182 -38 99 0 110 2 171 32 120 59 195 144 248 281 l26 67 3 438 3
437 -55 0 -56 0 0 -387 c0 -221 -5 -416 -11 -452 -20 -129 -89 -230 -191 -280
-52 -26 -72 -31 -137 -31 -162 0 -280 100 -326 277 -12 46 -15 135 -15 465 l0
408 -55 0 -55 0 0 -418z"/>
<path d="M18440 9250 l0 -620 55 0 55 0 0 571 0 571 148 -4 c172 -5 226 -22
290 -92 56 -60 76 -120 70 -205 -8 -115 -65 -189 -178 -232 -39 -15 -76 -19
-170 -19 -66 0 -120 -3 -120 -6 0 -10 463 -576 475 -580 7 -3 40 -4 75 -2 l63
3 -197 240 c-179 219 -194 241 -174 246 13 4 45 13 71 20 67 17 157 78 201
135 52 67 80 167 73 252 -12 121 -89 242 -186 292 -81 41 -145 50 -353 50
l-198 0 0 -620z"/>
<path d="M19907 9863 c-3 -5 -93 -246 -200 -538 -108 -291 -209 -567 -226
-613 l-31 -83 63 3 62 3 66 185 67 185 243 3 244 2 66 -187 66 -188 63 -3 c55
-3 62 -1 56 14 -3 9 -106 288 -228 620 l-222 604 -42 0 c-24 0 -45 -3 -47 -7z
m152 -480 l98 -273 -203 0 c-112 0 -204 3 -204 6 0 9 189 535 197 548 4 6 8 6
10 1 2 -6 48 -133 102 -282z"/>
<path d="M21410 9250 l0 -620 321 0 320 0 -3 48 -3 47 -262 3 -263 2 0 240 0
240 238 2 237 3 3 48 3 47 -240 0 -241 0 0 230 0 230 255 0 255 0 0 50 0 50
-310 0 -310 0 0 -620z"/>
<path d="M23100 9250 l0 -620 55 0 55 0 0 620 0 620 -55 0 -55 0 0 -620z"/>
<path d="M23660 9250 l0 -620 55 0 55 0 0 497 c0 416 2 495 13 483 8 -8 155
-232 328 -497 l314 -483 47 0 48 0 0 620 0 620 -55 0 -55 0 0 -501 c0 -275 -3
-498 -7 -496 -5 3 -154 228 -333 501 l-325 496 -42 0 -43 0 0 -620z"/>
<path d="M24860 9815 l0 -55 210 0 210 0 0 -565 0 -565 55 0 55 0 0 565 0 565
205 0 205 0 0 55 0 55 -470 0 -470 0 0 -55z"/>
<path d="M26150 9250 l0 -620 315 0 315 0 0 50 0 50 -260 0 -260 0 0 240 0
240 235 0 235 0 0 50 0 50 -235 0 -235 0 0 230 0 230 250 0 250 0 0 50 0 50
-305 0 -305 0 0 -620z"/>
<path d="M27190 9251 l0 -621 55 0 55 0 0 571 0 572 154 -5 c142 -4 158 -7
210 -32 169 -83 208 -307 74 -432 -68 -65 -109 -78 -256 -82 -87 -3 -132 -8
-129 -15 1 -5 106 -138 233 -293 l229 -284 74 0 c70 0 73 1 59 18 -82 95 -378
465 -375 468 2 2 29 11 61 19 124 33 218 105 265 205 23 48 26 68 26 160 0 95
-3 111 -28 162 -36 73 -119 149 -195 179 -52 21 -76 23 -284 27 l-228 4 0
-621z"/>
<path d="M28330 9250 l0 -620 55 0 55 0 0 620 0 620 -55 0 -55 0 0 -620z"/>
<path d="M30480 9251 l0 -621 55 0 55 0 0 571 0 572 153 -5 c124 -4 160 -8
197 -25 63 -28 107 -68 135 -123 71 -140 21 -295 -119 -368 -46 -24 -64 -27
-184 -30 -103 -3 -132 -7 -128 -17 2 -7 107 -139 232 -294 l229 -281 73 0 74
0 -39 48 c-243 295 -354 434 -351 438 3 2 30 11 62 19 87 23 148 59 204 119
65 72 92 142 92 240 0 160 -84 288 -227 347 -54 21 -75 23 -285 27 l-228 4 0
-621z"/>
<path d="M31610 9250 l0 -620 321 0 320 0 -3 48 -3 47 -262 3 -263 2 0 240 0
240 235 0 235 0 0 50 0 50 -235 0 -235 0 0 230 0 230 250 0 250 0 0 50 0 50
-305 0 -305 0 0 -620z"/>
</g>
</svg>
